HIERARCHY
ROOT Hips
{
  OFFSET 13.6774 106.653 -34.4427
  CHANNELS 6 Xposition Yposition Zposition Zrotation Xrotation Yrotation
  JOINT ToSpine
  {
    OFFSET -2.69724 7.43032 -0.144315
    CHANNELS 3 Zrotation Xrotation Yrotation
    JOINT Spine
    {
      OFFSET -0.0310711 10.7595 1.96963
      CHANNELS 3 Zrotation Xrotation Yrotation
      JOINT Spine1
      {
        OFFSET 19.9056 3.91189 0.764692
        CHANNELS 3 Zrotation Xrotation Yrotation
        JOINT Neck
        {
          OFFSET 25.9749 7.03908 -0.130764
          CHANNELS 3 Zrotation Xrotation Yrotation
          JOINT Head
          {
            OFFSET 9.52751 0.295786 -0.907742
            CHANNELS 3 Zrotation Xrotation Yrotation
            End Site
            {
              OFFSET 16.4037 0.713936 2.7358
            }
          }
        }
        JOINT LeftShoulder
        {
          OFFSET 17.7449 4.33886 11.7777
          CHANNELS 3 Zrotation Xrotation Yrotation
          JOINT LeftArm
          {
            OFFSET 0.911315 1.27913 9.80584
            CHANNELS 3 Zrotation Xrotation Yrotation
            JOINT LeftForeArm
            {
              OFFSET 28.6126 1.18197 -3.53199
              CHANNELS 3 Zrotation Xrotation Yrotation
              JOINT LeftHand
              {
                OFFSET 27.5088 0.0218783 0.327423
                CHANNELS 3 Zrotation Xrotation Yrotation
                End Site
                {
                  OFFSET 18.6038 -0.000155887 0.382096
                }
              }
            }
          }
        }
        JOINT RightShoulder
        {
          OFFSET 17.1009 2.89543 -12.2328
          CHANNELS 3 Zrotation Xrotation Yrotation
          JOINT RightArm
          {
            OFFSET 1.4228 0.178766 -10.211
            CHANNELS 3 Zrotation Xrotation Yrotation
            JOINT RightForeArm
            {
              OFFSET 28.733 1.87905 2.64907
              CHANNELS 3 Zrotation Xrotation Yrotation
              JOINT RightHand
              {
                OFFSET 27.4588 0.290562 -0.101845
                CHANNELS 3 Zrotation Xrotation Yrotation
                End Site
                {
                  OFFSET 17.8396 -0.255518 -0.000602873
                }
              }
            }
          }
        }
      }
    }
  }
  JOINT LeftUpLeg
  {
    OFFSET -5.61296 -2.22332 -10.2353
    CHANNELS 3 Zrotation Xrotation Yrotation
    JOINT LeftLeg
    {
      OFFSET 2.56703 -44.7417 -7.93097
      CHANNELS 3 Zrotation Xrotation Yrotation
      JOINT LeftFoot
      {
        OFFSET 3.16933 -46.5642 -3.96578
        CHANNELS 3 Zrotation Xrotation Yrotation
        JOINT LeftToeBase
        {
          OFFSET 0.346054 -6.02161 12.8035
          CHANNELS 3 Zrotation Xrotation Yrotation
          End Site
          {
            OFFSET 0.134235 -1.35082 5.13018
          }
        }
      }
    }
  }
  JOINT RightUpLeg
  {
    OFFSET -5.7928 -1.72406 10.6446
    CHANNELS 3 Zrotation Xrotation Yrotation
    JOINT RightLeg
    {
      OFFSET -2.57161 -44.7178 -7.85259
      CHANNELS 3 Zrotation Xrotation Yrotation
      JOINT RightFoot
      {
        OFFSET -3.10148 -46.5936 -4.03391
        CHANNELS 3 Zrotation Xrotation Yrotation
        JOINT RightToeBase
        {
          OFFSET -0.0828122 -6.13587 12.8035
          CHANNELS 3 Zrotation Xrotation Yrotation
          End Site
          {
            OFFSET -0.131328 -1.35082 5.13018
          }
        }
      }
    }
  }
}
MOTION
Frames: 15
Frame Time: 0.03333333333333333
0.0000 93.1000 0.0000 26.2227 -56.2085 -51.3049 -70.9904 -0.0180 87.9692 124.4393 74.2267 -42.7033 -1.5532 27.9069 -3.7431 -116.0386 17.4173 -173.2504 -158.4639 52.8727 -158.0117 0.0955 -13.3070 -20.7687 -102.5831 44.1542 -113.9949 15.2507 -6.8338 -109.0556 0.0968 0.0268 0.7822 -1.5420 11.3643 23.2303 -87.3547 -56.3248 126.0962 19.8598 10.9983 115.2458 0.9432 -0.3947 0.3377 -7.2390 9.2415 78.0185 -5.8056 56.3981 -11.7777 1.4834 -8.7021 -1.3095 0.2187 -0.9732 -3.2467 -57.2506 -5.9901 77.5808 2.0975 41.3881 3.8078 -5.7284 -9.6963 0.7098 1.7310 -30.3572 -19.2010 
0.0000 93.1000 0.0000 20.3264 -60.0451 -57.2253 -70.9855 -0.0677 87.9530 121.6734 74.3404 -38.4312 -1.5641 27.6513 -4.2116 -115.9958 18.4892 -166.1413 -162.4143 53.0164 -153.2181 0.4303 -12.3811 -21.3972 -106.4933 42.4367 -110.6871 14.1385 -6.9606 -110.5348 0.2375 -0.2604 0.6835 -1.3731 11.8971 21.1868 -79.7743 -56.1528 132.2625 21.8671 11.6130 116.0235 1.0300 -0.6367 1.0807 -10.4236 11.8770 78.2627 -4.9866 55.1232 -10.5822 0.1903 -8.4584 -0.9209 0.1611 -0.1361 -3.1278 -57.1477 -7.0295 76.6275 1.5305 40.8126 4.7560 -4.3117 -9.2654 0.2727 1.8635 -30.9409 -19.8157 
0.0000 93.1000 0.0000 13.3031 -63.3862 -65.8003 -70.9781 -0.0212 87.9711 115.3689 74.9918 -31.4952 0.5408 27.9571 -6.6000 -116.1931 18.5072 -171.3203 -155.8830 53.0559 -161.4227 0.2760 -12.0634 -20.3066 -108.5414 44.6350 -107.9549 15.4975 -7.6619 -111.2540 -0.1685 -0.1458 0.0931 -1.3091 10.8718 21.4368 -75.5837 -54.5762 136.3842 19.4527 10.7653 117.8585 0.5853 -0.3594 1.2917 -12.9316 15.1635 79.8176 -4.9958 54.6523 -10.3890 -0.5825 -7.2712 -1.0357 0.3874 -2.3903 -0.4616 -56.9761 -8.9611 73.7821 0.9033 39.9236 -3.0150 -3.9867 -9.4128 0.5753 1.3973 -27.0626 -1.3080 
0.0000 93.1000 0.0000 5.5825 -65.2785 -74.2278 -70.9728 -0.0120 87.9461 115.2172 75.2684 -30.4794 0.7787 27.9085 -6.3824 -117.0301 18.6309 -171.3879 -157.6247 52.9195 -161.7939 0.3124 -11.6689 -19.5750 -109.8801 45.7240 -104.8238 16.8796 -8.2108 -112.4644 0.0928 -0.1257 -0.3019 -1.3411 9.9569 20.7242 -69.2605 -52.5818 141.5110 16.0903 9.7389 119.9171 0.4628 -0.2087 2.0000 -16.1002 18.3745 82.1884 -4.1634 51.3539 -8.8903 -0.6878 -6.0967 -1.1882 0.7870 -2.4869 -1.7902 -56.2513 -9.2673 73.9821 1.2631 40.4476 0.0189 -3.0193 -9.6629 0.5294 2.1246 -26.3016 -7.4574 
0.0000 93.1000 0.0000 -3.1440 -67.3414 -86.6465 -70.9676 0.0571 87.9342 112.2998 74.7433 -27.4194 1.5337 27.4984 -5.9855 -117.8934 19.3141 -170.3368 -158.1548 52.9700 -161.8695 -0.0189 -12.0392 -18.9778 -112.2818 46.0393 -100.8787 17.8721 -9.4980 -113.6541 0.1859 0.2449 -0.4742 -1.3334 9.5724 19.2572 -64.1988 -52.1959 146.1163 17.5703 10.8743 119.5633 0.5021 0.1528 1.6755 -19.3516 20.8694 85.0644 -3.9210 48.3724 -8.1752 -1.0116 -3.8961 -1.3278 1.3033 -3.9769 -1.9853 -55.4211 -9.2741 76.5522 0.5423 38.8919 -2.0993 -2.5532 -9.7128 0.6317 2.0939 -24.9820 -5.5852 
0.0000 93.1000 0.0000 -11.7216 -67.3022 -96.0159 -70.9630 0.0804 87.9236 108.9316 74.7025 -25.2425 1.5749 27.3100 -6.2792 -116.4022 19.3234 -169.5422 -157.2270 52.6798 -161.6536 -0.1281 -12.0156 -18.6864 -115.1151 45.1518 -96.7505 18.9025 -10.5151 -114.5965 0.2944 0.3838 -0.4945 -1.3302 9.7008 18.8786 -62.0548 -51.2592 148.7958 17.9745 11.1369 118.4665 0.4197 0.2589 1.5001 -23.1213 22.3071 86.9134 -3.4994 44.8458 -5.6212 -2.4222 -1.4782 -0.9745 0.7156 -2.0759 -4.1308 -55.1297 -8.3916 80.1007 1.3366 38.4396 -2.0740 -1.7255 -10.7066 0.6839 2.3353 -23.1158 -5.3144 
0.0000 93.1000 0.0000 -17.7018 -67.0542 -102.4624 -70.9752 0.0916 87.9422 104.1338 74.3967 -20.1038 2.2726 26.7797 -7.4606 -114.7384 19.7438 -167.5735 -158.0695 52.7333 -158.6091 -0.1549 -12.0692 -18.9180 -117.6840 42.9208 -91.7245 19.1207 -11.2906 -115.7569 0.1880 0.4171 -0.8469 -1.2176 9.7596 18.7521 -59.5413 -51.8288 150.8594 18.9423 11.4332 118.5499 0.6508 0.3288 1.7798 -26.7001 23.2292 87.9781 -2.4436 40.6855 -2.9603 -2.8687 2.1539 -0.6417 0.4164 -0.3277 -4.3629 -55.1303 -7.2462 82.2700 1.1686 36.6652 -1.5704 -2.0542 -10.1243 0.7809 2.3439 -22.4994 -3.7006 
0.0000 93.1000 0.0000 -21.7645 -67.4144 -107.5712 -70.9928 0.0513 87.9730 99.0835 74.1052 -14.6490 3.2000 25.9261 -8.2860 -114.6569 19.5214 -166.6236 -157.8185 52.8780 -158.2807 0.1031 -11.6659 -18.0460 -120.2115 41.8964 -88.8625 18.3560 -10.7628 -116.4811 0.1518 0.1909 -0.9504 -1.2022 9.9026 19.1728 -58.3087 -51.5431 152.0601 18.2164 11.5771 118.2840 0.7719 0.0950 2.3572 -29.5454 23.2408 88.8803 -2.6832 36.4659 -1.4993 -3.4023 3.7209 -0.1993 -1.6557 3.4508 -2.3595 -55.2743 -6.4589 81.9657 1.0082 34.4596 0.0807 -1.9014 -10.0151 0.7451 1.9257 -22.0004 -0.1308 
0.0000 93.1000 0.0000 -25.3195 -67.0807 -112.1378 -71.0003 0.0744 87.9710 95.3607 73.6898 -10.5908 3.9507 25.9317 -9.0269 -113.4745 19.4380 -169.9608 -153.6880 52.7843 -161.9992 -0.0782 -12.1137 -17.6043 -121.9002 41.8299 -86.9033 18.7669 -11.1871 -116.7200 0.2750 0.2471 -1.3289 -1.2458 10.1349 19.0221 -57.6207 -51.3682 152.1215 17.9022 11.4012 118.6186 0.5289 0.2464 2.5020 -31.4274 23.1849 90.5149 -2.8619 34.5787 -4.1985 -4.6399 1.6179 -0.2531 -2.5438 4.1018 -0.8052 -54.9403 -6.6130 80.9301 0.7897 33.6933 3.9818 -1.4488 -11.0184 0.8835 1.7090 -20.7993 0.7081 
0.0000 93.1000 0.0000 -26.9831 -66.8871 -115.6063 -70.9862 0.0530 87.9311 94.4520 72.9340 -8.1941 4.2860 25.2129 -8.9282 -114.6435 19.1016 -169.8470 -153.6503 52.6082 -163.5998 0.0248 -12.1199 -17.5922 -123.5841 41.9848 -84.7974 18.2842 -11.3832 -116.9857 0.2835 0.1608 -1.2021 -1.1807 9.7469 18.8878 -57.5763 -52.0104 152.7970 17.2224 10.3038 119.3873 0.4629 0.1922 2.6567 -32.3866 23.0161 91.8011 -3.4875 36.2789 -12.1315 -7.9600 -1.1090 0.0639 0.0516 -2.4041 0.3152 -54.9052 -6.1880 80.0842 0.7714 33.7997 3.8291 -2.6394 -12.0219 0.9355 1.8601 -17.8652 0.8135 
0.0000 93.1000 0.0000 -30.6841 -65.8434 -117.8374 -70.9932 -0.0273 87.9349 92.4058 72.4137 -6.5457 4.4216 24.6987 -8.7784 -115.7484 19.1074 -169.7480 -156.4796 52.9279 -162.4577 0.2544 -12.5320 -18.5121 -124.7062 41.5667 -83.3835 19.1428 -12.1683 -117.5900 0.1318 -0.2570 -0.8918 -1.1850 9.9654 18.8981 -58.1711 -51.7066 153.1838 16.9444 10.1918 118.7859 0.3314 -0.2697 2.5231 -32.3821 21.7759 91.8242 -3.7340 40.9304 -14.0439 -7.7702 -4.2149 0.1897 0.7528 -4.3888 2.0881 -54.6363 -5.2293 81.6614 -0.6062 33.8316 5.0019 -2.7491 -13.4139 0.6911 1.4999 -16.0706 -1.9403 
0.0000 93.1000 0.0000 -33.3301 -65.8870 -121.0207 -70.9847 0.0418 87.9177 90.1174 72.7726 -3.7487 5.0170 24.4006 -8.1888 -116.7461 19.3821 -170.3797 -156.1045 52.8948 -163.4596 -0.1230 -12.8252 -19.1725 -125.3652 41.9762 -82.7427 19.8668 -13.6612 -119.1248 0.2778 0.0965 -1.2620 -1.1350 9.6619 18.7470 -58.1080 -51.7319 152.8806 15.8734 10.6074 119.5641 0.1177 0.1492 2.2718 -32.5528 21.0794 92.1253 -4.5245 43.4308 -10.7490 -8.0870 -5.7502 -0.2490 1.8283 -6.7691 1.1618 -54.4873 -4.9388 82.7774 -0.5474 33.6827 2.4145 -2.7969 -14.5161 0.9415 1.3218 -14.1220 -1.8254 
0.0000 93.1000 0.0000 -36.9197 -65.0092 -125.8156 -70.9935 -0.0612 87.9329 88.9972 72.6348 -2.8635 5.5198 24.8037 -8.7828 -116.5611 19.5267 -167.8372 -156.8932 53.0615 -162.6698 0.4518 -12.3777 -19.6870 -125.4245 42.1022 -81.5879 20.0808 -13.5666 -119.6175 0.1234 -0.4401 -0.8377 -1.0485 9.8840 18.4296 -57.2383 -51.8688 153.2384 16.2614 10.0385 119.2284 0.7123 -0.4138 2.7369 -34.3942 20.4064 93.5499 -3.3257 42.0305 -8.2661 -7.7690 -5.1550 0.2220 2.2003 -6.8888 1.1409 -54.3412 -4.2791 83.3564 -0.9404 33.8292 3.2961 -2.9173 -15.5466 0.7107 1.4730 -11.3414 -1.3620 
0.0000 93.1000 0.0000 -41.1467 -63.7537 -130.0381 -71.0125 0.0078 87.9358 89.5901 72.4993 -2.1037 5.7475 24.8897 -9.0780 -116.3937 19.2419 -170.2845 -156.1191 53.1924 -163.7552 0.0720 -12.2781 -19.3226 -125.5976 41.5755 -79.2375 19.3541 -13.5664 -119.5096 0.3260 -0.0844 -1.0555 -1.0482 9.8038 19.2214 -58.0996 -51.4066 151.5171 15.2407 9.2534 119.4254 0.4052 -0.0216 2.3524 -36.5783 21.2557 95.0730 -3.1223 39.7815 -6.2050 -6.9695 -4.4512 -0.0584 1.9241 -5.7673 -0.0948 -53.3301 -3.7777 84.8531 -1.0325 34.1223 5.0640 -4.3383 -16.8000 1.1484 1.0433 -10.6804 -0.9988 
0.0000 93.1000 0.0000 -42.9786 -62.8614 -133.4023 -71.0124 -0.0563 87.9430 85.8520 72.6485 1.1975 6.0538 24.9801 -9.1988 -116.5332 18.9905 -168.4609 -153.6024 53.1268 -165.2558 0.5219 -11.1560 -18.5036 -125.7495 42.0187 -78.4475 20.4273 -13.7663 -120.2150 -0.1318 -0.3989 -0.8922 -1.0957 9.9593 20.9951 -59.3877 -50.2375 149.9204 15.1168 9.3077 119.3638 0.4193 -0.3970 2.2428 -37.9261 21.0691 95.2736 -2.5814 38.2749 -6.3001 -7.0980 -3.6678 0.2934 2.7788 -7.7034 -1.4923 -53.3687 -3.9915 86.7502 -1.3497 33.7978 4.3267 -4.9612 -16.8567 1.0342 1.2006 -11.7255 -0.4273 
